<svg width="257" height="54" viewBox="0 0 257 54" fill="none" xmlns="http://www.w3.org/2000/svg">
<g xmlns="http://www.w3.org/2000/svg" transform="translate(0.000000,553.000000) scale(0.100000,-0.100000)" fill="#000000" stroke="none">
<path d="M563 5376 c-52 -24 -67 -59 -64 -154 1 -46 48 -92 93 -92 52 0 78 10 78 31 0 16 -6 18 -44 13 -39 -6 -46 -4 -61 19 -26 40 -17 115 16 139 25 19 28 19 58 4 29 -16 31 -16 31 3 0 39 -57 59 -107 37z"/>
<path d="M688 5375 c-3 -4 11 -57 31 -118 36 -108 39 -112 68 -115 30 -3 31 -1 63 85 17 48 34 103 37 122 5 28 3 33 -13 30 -14 -3 -27 -27 -48 -91 -16 -49 -32 -88 -35 -88 -3 0 -18 39 -32 88 -20 67 -30 88 -45 90 -11 2 -23 0 -26 -3z"/>
<path d="M925 5358 c-3 -13 -5 -66 -3 -118 3 -90 4 -95 26 -98 20 -3 22 1 22 42 l0 46 40 0 c33 0 40 3 40 19 0 16 -8 20 -37 23 -35 3 -38 6 -41 36 -3 32 -3 32 43 32 39 0 46 3 43 18 -3 14 -16 18 -65 20 -58 3 -63 1 -68 -20z"/>
<path d="M1430 5340 c0 -11 -7 -23 -15 -26 -8 -4 -15 -13 -15 -20 0 -8 7 -17 15 -20 11 -5 15 -22 15 -64 0 -65 13 -83 57 -78 34 4 46 38 14 38 -18 0 -21 6 -21 49 0 40 3 50 20 54 26 7 26 37 1 37 -13 0 -21 8 -23 23 -4 30 -48 38 -48 7z"/>
<path d="M1122 5313 c-20 -8 -42 -59 -42 -98 0 -49 36 -85 85 -85 55 0 85 35 85 99 0 39 -5 55 -22 71 -21 19 -74 26 -106 13z m80 -58 c23 -51 -20 -106 -57 -75 -18 15 -20 71 -3 88 20 20 48 14 60 -13z"/>
<path d="M1346 5311 c-3 -4 -17 -6 -31 -3 l-25 4 0 -87 c0 -84 1 -86 23 -83 19 3 23 10 27 63 4 53 8 60 28 63 29 4 32 52 3 52 -11 0 -22 -4 -25 -9z"/>
<path d="M1565 5295 c-20 -19 -25 -34 -25 -74 0 -42 4 -53 26 -70 42 -33 124 -27 124 9 0 15 -7 17 -44 13 -37 -5 -46 -2 -55 15 -11 20 -8 21 46 24 l58 3 -2 35 c-3 66 -80 94 -128 45z m83 -37 c3 -14 -3 -18 -27 -18 -29 0 -41 17 -24 34 13 13 48 1 51 -16z"/>
</g>
<path d="M22 7V13.06C28.78 14.03 34 19.85 34 26.9C34 28.69 33.65 30.4 33.04 31.97L38.24 35.04C39.35 32.55 40 29.81 40 26.9C40 16.53 32.11 8.01 22 7ZM20 40.9C12.27 40.9 6 34.63 6 26.9C6 19.85 11.22 14.03 18 13.06V7C7.88 8 0 16.53 0 26.9C0 37.95 8.94 46.9 19.99 46.9C26.61 46.9 32.46 43.67 36.1 38.72L30.91 35.66C28.35 38.85 24.42 40.9 20 40.9Z" fill="url(#paint0_linear_44_153)"/>
<defs>
<linearGradient id="paint0_linear_44_153" x1="40" y1="7" x2="-7.20049" y2="19.3253" gradientUnits="userSpaceOnUse">
<stop stop-color="#4FC5EB"/>
<stop offset="1" stop-color="#5D52D9"/>
</linearGradient>
</defs>
</svg>